<?xml version="1.0" standalone="no"?>
<!DOCTYPE svg PUBLIC "-//W3C//DTD SVG 20010904//EN"
 "http://www.w3.org/TR/2001/REC-SVG-20010904/DTD/svg10.dtd">
<svg version="1.0" xmlns="http://www.w3.org/2000/svg"
 width="512.000000pt" height="512.000000pt" viewBox="0 0 512.000000 512.000000"
 preserveAspectRatio="xMidYMid meet">
<metadata>
Created by potrace 1.14, written by Peter Selinger 2001-2017
</metadata>
<g transform="translate(0.000000,512.000000) scale(0.100000,-0.100000)"
fill="#FFFFFF" stroke="none">
<path d="M3735 4700 c-11 -4 -30 -18 -41 -31 -39 -43 -1246 -1792 -1260 -1826
-8 -18 -14 -51 -14 -73 0 -22 -4 -40 -8 -40 -5 0 -55 -8 -113 -19 -440 -79
-733 -318 -919 -749 -44 -102 -132 -359 -216 -632 -130 -421 -245 -650 -413
-823 -122 -126 -267 -223 -416 -278 -77 -28 -103 -45 -121 -80 -18 -37 -18
-64 3 -100 31 -51 41 -53 461 -46 1248 20 1905 190 2312 597 250 250 391 582
445 1045 8 71 15 162 15 202 0 89 4 99 45 113 19 6 43 26 58 48 14 20 325 604
691 1297 540 1021 666 1267 666 1297 0 28 -8 47 -29 70 -26 29 -35 33 -76 32
-33 -1 -52 -7 -68 -23 -12 -12 -319 -583 -683 -1269 l-660 -1247 -45 4 c-136
11 -353 119 -511 254 -109 94 -198 235 -198 313 0 31 83 155 617 926 570 823
616 893 620 936 3 36 -1 52 -16 69 -32 38 -83 51 -126 33z m-1240 -2200 c10
-33 89 -132 157 -198 140 -137 345 -262 516 -314 l72 -22 0 -50 c0 -85 -20
-274 -41 -396 -40 -233 -118 -441 -226 -603 -65 -98 -210 -241 -314 -310 -321
-212 -751 -320 -1478 -372 -113 -8 -252 -15 -309 -15 l-104 0 82 77 c241 227
363 462 554 1073 161 515 237 680 387 844 146 159 328 250 584 291 110 18 113
18 120 -5z"/>
</g>
</svg>
